<svg width="24" height="24" viewBox="0 0 24 24" fill="none" xmlns="http://www.w3.org/2000/svg">
	<path d="M9.19217 11.6662L6.489 8.96302C5.49193 9.38583 4.37885 9.44868 3.34052 9.1408C2.3022 8.83293 1.40328 8.1735 0.797833 7.27554C0.192385 6.37757 -0.0818926 5.29699 0.0220071 4.21897C0.125907 3.14096 0.601514 2.13264 1.36732 1.36684C2.13312 0.601039 3.14143 0.125432 4.21945 0.0215323C5.29746 -0.0823673 6.37805 0.19191 7.27601 0.797358C8.17398 1.40281 8.83341 2.30172 9.14128 3.34005C9.44915 4.37838 9.3863 5.49146 8.9635 6.48853L11.6667 9.19286L19.103 1.75536C19.3197 1.53859 19.5769 1.36663 19.8601 1.24931C20.1433 1.13199 20.4468 1.07161 20.7532 1.07161C21.0597 1.07161 21.3632 1.13199 21.6464 1.24931C21.9296 1.36663 22.1868 1.53859 22.4035 1.75536L23.2283 2.58019L8.9635 16.8439C9.3863 17.8409 9.44915 18.954 9.14128 19.9923C8.83341 21.0307 8.17398 21.9296 7.27601 22.535C6.37805 23.1405 5.29746 23.4148 4.21945 23.3109C3.14143 23.207 2.13312 22.7313 1.36732 21.9655C0.601514 21.1997 0.125907 20.1914 0.0220071 19.1134C-0.0818926 18.0354 0.192385 16.9548 0.797833 16.0568C1.40328 15.1589 2.3022 14.4995 3.34052 14.1916C4.37885 13.8837 5.49193 13.9466 6.489 14.3694L9.19333 11.6662H9.19217ZM4.66667 6.99953C5.2855 6.99953 5.879 6.75369 6.31658 6.31611C6.75417 5.87852 7 5.28503 7 4.66619C7 4.04735 6.75417 3.45386 6.31658 3.01628C5.879 2.57869 5.2855 2.33286 4.66667 2.33286C4.04783 2.33286 3.45434 2.57869 3.01675 3.01628C2.57917 3.45386 2.33333 4.04735 2.33333 4.66619C2.33333 5.28503 2.57917 5.87852 3.01675 6.31611C3.45434 6.75369 4.04783 6.99953 4.66667 6.99953V6.99953ZM4.66667 20.9995C5.2855 20.9995 5.879 20.7537 6.31658 20.3161C6.75417 19.8785 7 19.285 7 18.6662C7 18.0474 6.75417 17.4539 6.31658 17.0163C5.879 16.5787 5.2855 16.3329 4.66667 16.3329C4.04783 16.3329 3.45434 16.5787 3.01675 17.0163C2.57917 17.4539 2.33333 18.0474 2.33333 18.6662C2.33333 19.285 2.57917 19.8785 3.01675 20.3161C3.45434 20.7537 4.04783 20.9995 4.66667 20.9995V20.9995ZM15.7908 13.3147L23.2283 20.7534L22.4035 21.5782C22.1868 21.795 21.9296 21.9669 21.6464 22.0842C21.3632 22.2016 21.0597 22.2619 20.7532 22.2619C20.4468 22.2619 20.1433 22.2016 19.8601 22.0842C19.5769 21.9669 19.3197 21.795 19.103 21.5782L13.3163 15.7904L15.7897 13.3147H15.7908ZM16.3333 10.4995H18.6667V12.8329H16.3333V10.4995ZM21 10.4995H23.3333V12.8329H21V10.4995ZM4.66667 10.4995H7V12.8329H4.66667V10.4995ZM0 10.4995H2.33333V12.8329H0V10.4995Z" fill="#D9D9D9" />
</svg>
